<svg width="24" height="24" viewBox="0 0 24 24" fill="none" xmlns="http://www.w3.org/2000/svg">
<path fill-rule="evenodd" clip-rule="evenodd" d="M6.61339 5.2097C6.2211 4.90468 5.65387 4.93241 5.29338 5.29289C4.90286 5.68342 4.90286 6.31658 5.29338 6.70711L10.5863 12L5.29338 17.2929L5.21019 17.3871C4.90517 17.7794 4.9329 18.3466 5.29338 18.7071C5.68391 19.0976 6.31707 19.0976 6.7076 18.7071L12.0005 13.4142L17.2934 18.7071L17.3876 18.7903C17.7799 19.0953 18.3471 19.0676 18.7076 18.7071C19.0981 18.3166 19.0981 17.6834 18.7076 17.2929L13.4147 12L18.7076 6.70711L18.7908 6.6129C19.0958 6.22061 19.0681 5.65338 18.7076 5.29289C18.3171 4.90237 17.6839 4.90237 17.2934 5.29289L12.0005 10.5858L6.7076 5.29289L6.61339 5.2097Z" fill="white"/>
</svg>
