<svg width="24" height="24" viewBox="0 0 24 24" fill="none" xmlns="http://www.w3.org/2000/svg">
<path d="M4 21C4 20.4477 4.44772 20 5 20H19C19.5523 20 20 20.4477 20 21C20 21.5523 19.5523 22 19 22H5C4.44772 22 4 21.5523 4 21Z" fill="white"/>
<path fill-rule="evenodd" clip-rule="evenodd" d="M12.4118 3.17449C13.9739 1.6124 16.5066 1.61241 18.0687 3.1745L18.826 3.93186C20.3881 5.49395 20.3881 8.02662 18.826 9.58872L11.9199 16.4948C11.6425 16.7722 11.2896 16.9619 10.9051 17.0403L6.40157 17.9582C4.99701 18.2445 3.75618 17.0037 4.04242 15.5991L4.96022 11.0954C5.03857 10.7109 5.22828 10.358 5.50573 10.0805L12.4118 3.17449ZM16.6545 4.58872C15.8734 3.80767 14.6071 3.80767 13.826 4.58871L13.4144 5.00036L17.0002 8.58614L17.4118 8.1745C18.1929 7.39345 18.1929 6.12712 17.4118 5.34607L16.6545 4.58872ZM8.41437 10.0003L12.0002 6.41457L15.586 10.0003L12.0002 13.5861L8.41437 10.0003ZM7.00015 11.4146L6.91994 11.4948L6.00214 15.9985L10.5057 15.0806L10.5859 15.0003L7.00015 11.4146Z" fill="white"/>
</svg>
