<svg width="24" height="24" viewBox="0 0 24 24" fill="none" xmlns="http://www.w3.org/2000/svg">
<path fill-rule="evenodd" clip-rule="evenodd" d="M2.29363 2.29289C2.65411 1.93241 3.22134 1.90468 3.61363 2.2097L3.70784 2.29289L17.9831 16.5681C18.039 16.6129 18.0907 16.6643 18.1371 16.7221L21.7078 20.2929C22.0984 20.6834 22.0984 21.3166 21.7078 21.7071C21.3474 22.0676 20.7801 22.0953 20.3878 21.7903L20.2936 21.7071L17.2067 18.6201C15.6027 19.538 13.863 19.9998 12.0007 19.9998C7.60513 19.9998 3.96421 17.4512 1.1325 12.496C0.95679 12.1885 0.956811 11.811 1.13256 11.5036C2.32343 9.42019 3.65339 7.76392 5.12772 6.5412L2.29363 3.70711C1.9031 3.31658 1.9031 2.68342 2.29363 2.29289ZM6.54924 7.96272C5.41004 8.87476 4.34657 10.1099 3.36243 11.673L3.16173 11.9998L3.27932 12.1939C5.63075 15.9933 8.42624 17.8899 11.7097 17.9952L12.0007 17.9998C13.3266 17.9998 14.565 17.7153 15.7287 17.1422L13.2953 14.7088C12.1791 15.2435 10.8008 15.0481 9.87634 14.1229C8.95236 13.1983 8.75767 11.8209 9.29201 10.7055L6.54924 7.96272ZM11.2356 12.6491L11.3517 12.7652C11.3309 12.7475 11.3107 12.7289 11.2911 12.7092C11.2716 12.6898 11.2531 12.6697 11.2356 12.6491ZM11.9998 3.99983C16.3954 3.99983 20.0364 6.54848 22.8681 11.5037C23.0438 11.8112 23.0438 12.1887 22.868 12.4962C22.0532 13.9216 21.1752 15.1454 20.2312 16.1666C19.8563 16.5722 19.2237 16.5971 18.8181 16.2223C18.4125 15.8474 18.3876 15.2147 18.7625 14.8091C19.4128 14.1055 20.0354 13.2829 20.6295 12.3406L20.8388 11.9999L20.7213 11.8058C18.3698 8.00638 15.5741 6.10975 12.2876 6.00447L11.9964 5.99982C11.1987 5.99705 10.4047 6.10697 9.63788 6.32632C9.10689 6.47822 8.55331 6.17091 8.40141 5.63992C8.24952 5.10894 8.55683 4.55535 9.08781 4.40345C10.0357 4.13228 11.0173 3.99641 11.9998 3.99983Z" fill="white"/>
</svg>
