<svg width="24" height="24" viewBox="0 0 24 24" fill="none" xmlns="http://www.w3.org/2000/svg">
<path fill-rule="evenodd" clip-rule="evenodd" d="M16.9152 3.00348C18.3212 2.88387 19.484 3.98805 19.9305 5.60706L19.9806 5.80377L20.9806 10.8038L21 10.9999C21 12.5976 19.7511 13.9035 18.1763 13.9948L18 13.9999L16 13.9989V17.9999C16 19.5976 14.7511 20.9035 13.1763 20.9948L13 20.9999C11.4023 20.9999 10.0963 19.751 10.0051 18.1762L10 17.9999V16.9999C10 15.4022 8.75108 14.0962 7.17627 14.005L7 13.9999H4C2.94564 13.9999 2.08183 13.184 2.00549 12.1491L2 11.9999V4.99988C2 3.94552 2.81588 3.08172 3.85074 3.00537L4 2.99988H6C6.59336 2.99988 7.12638 3.25828 7.49265 3.66869L7.6 3.79988L7.66785 3.74973C8.27388 3.3141 9.00671 3.04379 9.80036 3.00478L10 2.99988L16.9152 3.00348ZM17.0863 5.00039L10 4.99988C8.94564 4.99988 8.08183 5.81576 8.00549 6.85062L8 6.99888V12.1009L8.05897 12.1122C10.2435 12.5833 11.8972 14.4818 11.9954 16.783L12 16.9999V17.9999C12 18.5522 12.4477 18.9999 13 18.9999C13.5128 18.9999 13.9355 18.6138 13.9933 18.1165L14 17.9999V12.9999C14 12.487 14.386 12.0644 14.8834 12.0066L15 11.9999H18C18.5128 11.9999 18.9355 11.6138 18.9933 11.1165L18.995 11.0769L18.0264 6.22812C17.8463 5.45999 17.4614 5.03305 17.0863 5.00039ZM4 11.9999L6 11.9989V4.99988H4V11.9999Z" fill="white"/>
</svg>
