<svg width="24" height="24" viewBox="0 0 24 24" fill="none" xmlns="http://www.w3.org/2000/svg">
<path fill-rule="evenodd" clip-rule="evenodd" d="M13.4341 6.03593C10.8361 5.55756 8.45415 7.08609 7.97892 9.21978C7.87705 9.67714 7.47114 10.0025 7.00237 10.0025C4.9122 10.0025 3.30071 11.6054 3.30071 13.5025C3.30071 15.3883 4.92085 17.0025 7.01238 17.0025C7.56491 17.0025 8.01283 17.4502 8.01283 18.0025C8.01283 18.5548 7.56491 19.0025 7.01238 19.0025C3.90156 19.0025 1.2998 16.5767 1.2998 13.5025C1.2998 10.6749 3.47888 8.40743 6.241 8.05122C7.30488 5.15086 10.5739 3.47623 13.7953 4.06878C16.8629 4.62593 19.1289 7.11088 19.114 10.0039C21.5421 10.0654 23.4998 12.0474 23.4998 14.5025C23.4998 16.9848 21.4812 19.0025 18.9978 19.0025H17.9973C17.4448 19.0025 16.9969 18.5548 16.9969 18.0025C16.9969 17.4502 17.4448 17.0025 17.9973 17.0025H18.9978C20.3761 17.0025 21.4989 15.8802 21.4989 14.5025C21.4989 13.1166 20.378 12.0025 18.9978 12.0025H17.9973C17.6932 12.0025 17.4056 11.8642 17.2157 11.6267C17.0259 11.3892 16.9544 11.0783 17.0215 10.7818C17.4949 8.69057 16.0071 6.50276 13.4367 6.0364L13.4341 6.03593Z" fill="white"/>
<path fill-rule="evenodd" clip-rule="evenodd" d="M11.3072 11.2954C11.6979 10.9048 12.3314 10.9048 12.7221 11.2954L15.7234 14.2954C16.1141 14.6859 16.1141 15.3191 15.7234 15.7096C15.3327 16.1001 14.6993 16.1001 14.3086 15.7096L12.0146 13.4167L9.72071 15.7096C9.33 16.1001 8.69655 16.1001 8.30585 15.7096C7.91515 15.3191 7.91515 14.6859 8.30585 14.2954L11.3072 11.2954Z" fill="white"/>
<path fill-rule="evenodd" clip-rule="evenodd" d="M12.0146 11.0025C12.5672 11.0025 13.0151 11.4502 13.0151 12.0025V21.0025C13.0151 21.5548 12.5672 22.0025 12.0146 22.0025C11.4621 22.0025 11.0142 21.5548 11.0142 21.0025V12.0025C11.0142 11.4502 11.4621 11.0025 12.0146 11.0025Z" fill="white"/>
</svg>
