<svg width="24" height="24" viewBox="0 0 24 24" fill="none" xmlns="http://www.w3.org/2000/svg">
<circle cx="12" cy="12" r="11" fill="#FAC900" stroke="white" stroke-width="2"/>
<path fill-rule="evenodd" clip-rule="evenodd" d="M11.3334 14C11.3334 14.3681 11.6319 14.6666 12.0001 14.6666C12.3683 14.6666 12.6667 14.3681 12.6667 14C12.5676 13.1961 12.925 12.4041 13.5934 11.9466C14.6791 11.5454 15.382 10.4897 15.3334 9.33328C15.2369 7.77067 13.8966 6.57931 12.3334 6.66662H11.6667C10.1036 6.57931 8.76331 7.77067 8.66675 9.33328C8.66675 9.70147 8.96522 9.99995 9.33341 9.99995C9.7016 9.99995 10.0001 9.70147 10.0001 9.33328C10.1044 8.51166 10.8423 7.92134 11.6667 7.99995H12.3334C13.1695 7.92235 13.9124 8.53158 14.0001 9.36662C14.034 9.95881 13.6726 10.5022 13.1134 10.7H13.0534C11.8807 11.3657 11.2075 12.6573 11.3334 14ZM11.3334 16.6666C11.3334 17.0348 11.6319 17.3333 12.0001 17.3333C12.3683 17.3333 12.6667 17.0348 12.6667 16.6666C12.6667 16.2984 12.3683 16 12.0001 16C11.6319 16 11.3334 16.2984 11.3334 16.6666Z" fill="black"/>
</svg>
